<?xml version="1.0" encoding="utf-8"?>
<!-- Generator: Adobe Illustrator 25.1.0, SVG Export Plug-In . SVG Version: 6.00 Build 0)  -->
<svg version="1.1" id="Warstwa_1" xmlns="http://www.w3.org/2000/svg" xmlns:xlink="http://www.w3.org/1999/xlink" x="0px" y="0px"
	 viewBox="0 0 340.16 90.71" style="enable-background:new 0 0 340.16 90.71;" xml:space="preserve">
<style type="text/css">
	.st0{fill:#D5E614;}
	.st1{fill:#CDCDCD;}
</style>
<g>
	<path class="st0" d="M53.99,42.38c-0.21-2.25-0.77-4.51-1.63-6.67c-0.02-0.04-0.04-0.09-0.07-0.14
		c-6.03-12.07-15.4-14.9-20.66-15.49c-0.27-0.02-1.74-0.13-2.24-0.13c-13.63,0-24.72,11.09-24.72,24.7
		c0,13.63,11.09,24.72,24.72,24.72c1.63,0,3.24-0.16,4.83-0.48c0,0,0.07-0.02,0.21-0.05c0.77-0.19,3.41-0.92,6.52-2.44
		c-1.42,2.51-4.15,4.24-7.27,4.24H11.61c0,0-5.43-0.54-5.43,5.43c0,5.97,6.87,6.69,6.87,6.69l27.88,0.14c0,0,2.31,0.11,6.69-4.21
		c2.23-2.2,3.99-4.86,5.01-7.83c0.08-0.23,0.13-0.4,0.15-0.49c0.1-0.46,0.18-0.92,0.23-1.37c0.36-2.66,0.42-6.94-1.4-11.8
		c1.44-2.42,2.41-5.28,2.49-8.69v-3.85c0-0.75-0.04-1.48-0.11-2.24C53.99,42.4,53.99,42.38,53.99,42.38z M29.39,56.35
		c-6.46,0-11.7-5.24-11.7-11.7c0-6.44,5.24-11.68,11.7-11.68c6.44,0,11.68,5.24,11.68,11.68C41.07,51.11,35.83,56.35,29.39,56.35z"
		/>
	<path class="st0" d="M81.72,19.95c-3.43,0-6.82,0.73-10.09,2.2c-0.07,0.04-0.16,0.07-0.23,0.11c-8.8,4.11-12.31,12.33-13.31,15.26
		c-0.07,0.23-0.13,0.41-0.18,0.57c-0.05,0.13-0.09,0.25-0.11,0.38c-0.02,0.09-0.04,0.13-0.04,0.13C57.25,40.56,57,42.6,57,44.66
		v18.21c0,3.6,2.93,6.51,6.53,6.51c3.58,0,6.51-2.92,6.51-6.51V44.66c0-6.44,5.24-11.68,11.68-11.68c6.44,0,11.68,5.24,11.68,11.68
		v18.21c0,3.6,2.93,6.51,6.53,6.51c3.58,0,6.51-2.92,6.51-6.51V44.66C106.44,31.04,95.35,19.95,81.72,19.95z"/>
	<path class="st1" d="M162.87,7.81c-3.59,0-6.51,2.92-6.51,6.51v32.86L118.92,9.74c-1.25-1.25-2.87-1.93-4.58-1.93
		c-3.59,0-6.51,2.92-6.51,6.51v48.54c0,3.59,2.92,6.51,6.51,6.51c3.59,0,6.51-2.92,6.51-6.51V30.01l37.43,37.43
		c1.14,1.24,2.82,1.94,4.59,1.94c3.59,0,6.51-2.92,6.51-6.51V14.33C169.39,10.74,166.46,7.81,162.87,7.81z"/>
	<path class="st1" d="M319.87,38.14h-12.13c-1.45,0-2.59-1.13-2.59-2.58s1.14-2.59,2.59-2.59h18.21c3.58,0,6.51-2.92,6.51-6.51
		s-2.93-6.51-6.51-6.51h-18.21c-7.96,0-14.54,5.99-15.49,13.7v-7.19c0-3.6-2.92-6.51-6.51-6.51c-3.6,0-6.51,2.92-6.51,6.51V47.7
		c0,4.78-3.88,8.66-8.66,8.66c-4.76,0-8.64-3.88-8.64-8.66V26.46c0-3.6-2.93-6.51-6.53-6.51c-3.58,0-6.51,2.92-6.51,6.51V47.7
		c0,4.78-3.88,8.66-8.64,8.66c-4.78,0-8.66-3.88-8.66-8.66V26.46c0-3.6-2.93-6.51-6.51-6.51c-3.6,0-6.53,2.92-6.53,6.51V38.2
		c-2.84-10.5-12.43-18.25-23.81-18.25c-13.63,0-24.72,11.09-24.72,24.7c0,13.63,11.09,24.72,24.72,24.72h6.06
		c3.58,0,6.51-2.92,6.51-6.51c0-3.6-2.93-6.51-6.51-6.51h-6.06c-4.02,0-7.6-1.93-9.73-5.17h27.92c2.42,0,4.51-1.34,5.63-3.31
		c0.09,11.88,9.79,21.5,21.68,21.5c5.74,0,11.11-2.18,15.15-6.15c3.97,3.97,9.34,6.15,15.17,6.15c11.97,0,21.68-9.73,21.68-21.68
		V37.46c0.95,7.71,7.53,13.72,15.49,13.72h12.13c1.45,0,2.59,1.13,2.59,2.58s-1.14,2.59-2.59,2.59h-21.23
		c-3.58,0-6.51,2.92-6.51,6.51c0,3.6,2.93,6.51,6.51,6.51h21.23c8.62,0,15.62-7.01,15.62-15.62S328.49,38.14,319.87,38.14z
		 M185.01,38.14c2.18-3.26,5.76-5.17,9.73-5.17c3.9,0,7.55,1.97,9.71,5.17H185.01z"/>
</g>
</svg>
